<svg xmlns="http://www.w3.org/2000/svg" id="Layer_2" data-name="Layer 2" viewBox="0 0 177.81 157.35" width="177.80999755859375" height="157.35000610351562"><defs><style>      .cls-1 {        fill: none;        stroke: #1a475e;        stroke-linecap: round;        stroke-linejoin: round;        stroke-width: 5px;      }    </style></defs><g id="Layer_1-2" data-name="Layer 1"><path class="cls-1" d="M54.56,16.23v13.83l-23.53,21.26c-.24-.5-.37-1.06-.37-1.65V16.23c0-2.2,1.79-4,4-4h15.9c2.21,0,4,1.8,4,4Z"></path><path class="cls-1" d="M151.87,82.89v59.96c0,6.63-5.38,12-12,12H37.94c-6.63,0-12-5.37-12-12v-59.97L88.9,25.98l62.97,56.91Z"></path><path class="cls-1" d="M72.92,86.95h31.97c2.21,0,4,1.79,4,4v63.9h-39.97v-63.9c0-2.21,1.79-4,4-4Z"></path><path class="cls-1" d="M172.73,88.26c-1.98,2.18-4.7,3.29-7.42,3.29-2.4,0-4.79-.85-6.71-2.58l-6.73-6.08L88.9,25.98,25.94,82.88l-6.74,6.09c-4.09,3.7-10.42,3.39-14.12-.71-3.7-4.1-3.39-10.42,.71-14.13l25.24-22.81,23.53-21.26L82.2,5.08c3.81-3.44,9.6-3.44,13.41,0l76.4,69.05c4.1,3.71,4.42,10.03,.72,14.13Z"></path></g></svg>