<svg xmlns="http://www.w3.org/2000/svg" id="Layer_2" data-name="Layer 2" viewBox="0 0 140.96 168.24" width="140.9600067138672" height="168.24000549316406"><defs><style>      .cls-1 {        fill: none;        stroke: #1a475e;        stroke-linecap: round;        stroke-linejoin: round;        stroke-width: 5px;      }    </style></defs><g id="Layer_1-2" data-name="Layer 1"><g><g><g><circle class="cls-1" cx="87.65" cy="149.87" r="15.87"></circle><line class="cls-1" x1="87.65" y1="48.28" x2="87.65" y2="134"></line></g><g><path class="cls-1" d="M66.94,107.38c-2.23,1.02-4.71,1.59-7.33,1.59-9.77,0-17.69-7.92-17.69-17.69s7.92-17.7,17.69-17.7c2.62,0,5.1,.57,7.33,1.59-6.11,2.78-10.36,8.95-10.36,16.11s4.25,13.32,10.36,16.1Z"></path><line class="cls-1" x1="54.72" y1="48.28" x2="54.72" y2="73.58"></line></g><g><path class="cls-1" d="M21.27,141.91l-9.08,4.77c-1.47,.77-3.18-.47-2.9-2.11l1.73-10.11c.11-.65-.1-1.31-.58-1.77l-7.34-7.16c-1.19-1.16-.53-3.17,1.11-3.41l10.15-1.47c.65-.09,1.21-.5,1.51-1.09l4.54-9.2c.73-1.49,2.85-1.49,3.59,0l4.54,9.2c.29,.59,.85,1,1.51,1.09l10.15,1.47c1.64,.24,2.3,2.25,1.11,3.41l-7.34,7.16c-.47,.46-.69,1.12-.58,1.77l1.73,10.11c.28,1.63-1.43,2.88-2.9,2.11l-9.08-4.77c-.58-.31-1.28-.31-1.86,0Z"></path><line class="cls-1" x1="22.2" y1="61.48" x2="22.2" y2="109.25"></line></g><g><line class="cls-1" x1="117.57" y1="59.76" x2="117.57" y2="89.25"></line><path class="cls-1" d="M129.5,110.1l-10.21,17.01c-.78,1.29-2.65,1.29-3.43,0l-10.21-17.01c-.38-.63-.38-1.43,0-2.06l10.21-17.01c.78-1.29,2.65-1.29,3.43,0l10.21,17.01c.38,.63,.38,1.43,0,2.06Z"></path></g></g><circle class="cls-1" cx="71.36" cy="10.82" r="8.32"></circle><path class="cls-1" d="M9.77,58.25c-1.77,0-3.53-.72-4.82-2.13-2.41-2.66-2.21-6.77,.45-9.18C23.36,30.65,46.6,21.69,70.86,21.69s47.5,8.97,65.46,25.24c2.66,2.41,2.86,6.52,.45,9.18-2.41,2.66-6.52,2.86-9.18,.45-15.56-14.11-35.71-21.88-56.73-21.88s-41.17,7.77-56.73,21.88c-1.25,1.13-2.81,1.68-4.36,1.68Z"></path></g></g></svg>