<?xml version="1.0" encoding="UTF-8"?>
<svg xmlns="http://www.w3.org/2000/svg" xmlns:xlink="http://www.w3.org/1999/xlink" width="11px" height="13px" viewBox="0 0 11 13" version="1.1">
  <!-- Generator: Sketch 52.3 (67297) - http://www.bohemiancoding.com/sketch -->
  <title>Group 7</title>
  <desc>Created with Sketch.</desc>
  <defs>
    <polygon id="path-1" points="3.28358209e-05 0.0461666667 10.9793134 0.0461666667 10.9793134 5 3.28358209e-05 5"></polygon>
    <polygon id="path-3" points="0.154628205 0.127842105 6.8229359 0.127842105 6.8229359 6.97190789 0.154628205 6.97190789"></polygon>
  </defs>
  <g id="FINALS" stroke="none" stroke-width="1" fill="none" fill-rule="evenodd">
    <g id="Get-Started" transform="translate(-239.000000, -555.000000)">
      <g id="FORM" transform="translate(150.000000, 192.000000)">
        <g id="FORM-ELEMENTS" transform="translate(73.000000, 293.000000)">
          <g id="FULL-NAME" transform="translate(0.000000, 53.000000)">
            <g id="Group-7" transform="translate(16.000000, 17.000000)">
              <g id="Group-3" transform="translate(0.000000, 8.000000)">
                <mask id="mask-2" fill="white">
                  <use xlink:href="#path-1"></use>
                </mask>
                <g id="Clip-2"></g>
                <path d="M10.3694209,5 C10.0325254,5 9.75949552,4.72266667 9.75949552,4.38083333 L9.75949552,3.14233333 C9.75949552,2.118 8.9386,1.28466667 7.9297194,1.28466667 L3.04982388,1.28466667 C2.0407791,1.28466667 1.21988358,2.118 1.21988358,3.14233333 L1.21988358,4.38083333 C1.21988358,4.72266667 0.946689552,5 0.609958209,5 C0.273062687,5 3.28358209e-05,4.72266667 3.28358209e-05,4.38083333 L3.28358209e-05,3.14233333 C3.28358209e-05,1.43516667 1.36813731,0.0461666667 3.04982388,0.0461666667 L7.9297194,0.0461666667 C9.61124179,0.0461666667 10.9793463,1.43516667 10.9793463,3.14233333 L10.9793463,4.38083333 C10.9793463,4.72266667 10.7063164,5 10.3694209,5" id="Fill-1" fill="#1A475E" mask="url(#mask-2)"></path>
              </g>
              <g id="Group-6" transform="translate(2.000000, 0.000000)">
                <mask id="mask-4" fill="white">
                  <use xlink:href="#path-3"></use>
                </mask>
                <g id="Clip-5"></g>
                <path d="M3.48878205,1.49661842 C2.38565385,1.49661842 1.48821795,2.41767105 1.48821795,3.54982895 C1.48821795,4.68198684 2.38565385,5.60303947 3.48878205,5.60303947 C4.59191026,5.60303947 5.48934615,4.68198684 5.48934615,3.54982895 C5.48934615,2.41767105 4.59191026,1.49661842 3.48878205,1.49661842 M3.48878205,6.97190789 C1.65029487,6.97190789 0.154628205,5.43669737 0.154628205,3.54982895 C0.154628205,1.66296053 1.65029487,0.12775 3.48878205,0.12775 C5.32726923,0.12775 6.8229359,1.66296053 6.8229359,3.54982895 C6.8229359,5.43669737 5.32726923,6.97190789 3.48878205,6.97190789" id="Fill-4" fill="#1A475E" mask="url(#mask-4)"></path>
              </g>
            </g>
          </g>
        </g>
      </g>
    </g>
  </g>
</svg>
