<?xml version="1.0" encoding="UTF-8"?>
<svg xmlns="http://www.w3.org/2000/svg" xmlns:xlink="http://www.w3.org/1999/xlink" width="12px" height="14px" viewBox="0 0 12 14" version="1.1">
  <!-- Generator: Sketch 52.3 (67297) - http://www.bohemiancoding.com/sketch -->
  <title>Group 3</title>
  <desc>Created with Sketch.</desc>
  <defs>
    <polygon id="path-1" points="0 0 12 0 12 14 0 14"></polygon>
  </defs>
  <g id="FINALS" stroke="none" stroke-width="1" fill="none" fill-rule="evenodd">
    <g id="Get-Started" transform="translate(-244.000000, -609.000000)">
      <g id="FORM" transform="translate(150.000000, 192.000000)">
        <g id="FORM-ELEMENTS" transform="translate(73.000000, 293.000000)">
          <g id="PHONE" transform="translate(0.000000, 108.000000)">
            <g id="Group-25" transform="translate(21.000000, 14.000000)">
              <g id="Group-3" transform="translate(0.000000, 2.000000)">
                <mask id="mask-2" fill="white">
                  <use xlink:href="#path-1"></use>
                </mask>
                <g id="Clip-2"></g>
                <path d="M3.15541587,0 L3.15524872,0 C2.81710875,0 2.4888305,0.102738066 2.2061836,0.297068088 C1.98253987,0.45101365 1.75755895,0.60285922 1.53241088,0.754866327 C1.38515369,0.854373637 1.23772934,0.953880947 1.09063929,1.05387287 C0.511639367,1.44786366 0.279805391,1.92536952 0.187205518,2.25652209 C0.129372385,2.46312899 0.0927670201,2.65713593 0.0631818624,2.81318149 C0.054155882,2.86051207 0.0457984928,2.90493498 0.0376082514,2.94467329 L0,3.12414183 L0.0197234385,3.30635651 C0.0279136799,3.38276391 0.0344324435,3.45206365 0.0406169115,3.51635571 C0.0548244732,3.66351668 0.0680291481,3.80260076 0.0922655768,3.95266941 C0.205591774,4.65729747 0.436422864,5.36757936 0.819024142,6.18770697 C1.62684938,7.91874647 2.75258971,9.58662467 4.16498848,11.1446571 C4.89876725,11.9539617 5.57738726,12.5644132 6.30063572,13.0656651 C6.77332965,13.3931023 7.41868725,13.78887 8.2216652,13.9445925 C8.41104364,13.9814231 8.59941919,14 8.78127598,14 C9.3158146,14 9.80488901,13.8454083 10.2349603,13.5407479 C10.5629042,13.308295 10.8968655,13.0827881 11.227651,12.8705274 C11.7748928,12.5190211 12.053361,11.9521848 11.9915163,11.3152411 C11.9727958,11.1212341 11.9371933,10.947581 11.8830374,10.7845893 C11.5731454,9.85219288 10.9989928,9.0189807 10.1759571,8.3082142 C9.93576573,8.10063807 9.67936103,7.9688232 9.43799963,7.85703901 C9.21552593,7.75397787 8.9796804,7.70180115 8.73731612,7.70180115 C8.38914728,7.70180115 8.05017158,7.81100073 7.75682721,8.0179307 C7.64784686,8.09482271 7.53686073,8.16913012 7.42604175,8.24359906 C7.39712518,8.2629836 7.36837576,8.28236814 7.33962635,8.30175269 C7.28045603,8.26427591 7.21393121,8.21371456 7.1393833,8.14974558 C6.27990939,7.41200226 5.68185462,6.58024392 5.31128799,5.60665536 C5.28705156,5.54284791 5.26816386,5.48501737 5.25445774,5.43284064 C5.28738585,5.40990227 5.31880964,5.38761005 5.34923053,5.36612551 C5.42227411,5.31427187 5.491139,5.26548744 5.53777323,5.23947985 C6.20870444,4.86406591 6.51909787,4.20305307 6.38972549,3.42557144 C6.36866487,3.2986027 6.33573675,3.17082627 6.29261263,3.04595752 C5.97018455,2.11549956 5.39469473,1.29084888 4.5826908,0.594943866 C4.33547922,0.383006219 4.06603699,0.247960585 3.85910804,0.153945562 C3.63429427,0.0516921089 3.39744586,0 3.15541587,0 M3.15541587,1.20038769 C3.21458618,1.20038769 3.2734222,1.21427995 3.33075389,1.24028754 C3.48152119,1.30877958 3.63529716,1.38728697 3.75865222,1.49309426 C4.37977339,2.0251999 4.84929151,2.66068977 5.11488934,3.42718682 C5.13611711,3.4885712 5.15266474,3.55237864 5.16352934,3.61634763 C5.20381196,3.85881593 5.16252646,4.06235361 4.91548203,4.20046846 C4.71874909,4.31063727 4.54524969,4.45925208 4.35102397,4.57426702 C4.08509184,4.73144334 3.98580606,4.9617963 3.98497032,5.24917212 C3.98430173,5.51748647 4.05116084,5.77271626 4.14576649,6.02099992 C4.59840269,7.2102415 5.33886737,8.20983765 6.31450899,9.04724982 C6.58578984,9.28002585 6.88866162,9.479202 7.25571816,9.55399402 C7.313217,9.56578629 7.36971295,9.57192472 7.42503886,9.57192472 C7.56059572,9.57192472 7.68963381,9.53460948 7.81048165,9.45012519 C8.03462683,9.29327195 8.26562507,9.14514175 8.48910166,8.98748082 C8.56883115,8.93142719 8.65273934,8.90218884 8.73731612,8.90218884 C8.79197344,8.90218884 8.84713221,8.91446571 8.90145524,8.93966562 C9.05840701,9.01235764 9.22003892,9.09248041 9.34840841,9.20329537 C9.96986388,9.73992408 10.4432264,10.3771909 10.7004668,11.1514417 C10.7298848,11.240126 10.745931,11.3344641 10.754957,11.4273484 C10.773009,11.6134399 10.7125015,11.7599548 10.5401721,11.8706082 C10.1881589,12.0967612 9.84149438,12.3311526 9.50068005,12.5726516 C9.27569913,12.7320895 9.03483917,12.7996123 8.78127598,12.7996123 C8.6781458,12.7996123 8.57300984,12.7884662 8.46586811,12.7677894 C7.92564648,12.6629513 7.46431859,12.3947985 7.02438562,12.0901381 C6.30548301,11.5919554 5.680016,10.9942654 5.0993446,10.3536063 C3.82233553,8.9451579 2.74958105,7.40505613 1.95145038,5.69420887 C1.66345475,5.07713432 1.42777637,4.44132138 1.31963176,3.76835474 C1.29221952,3.59728616 1.28102062,3.42363299 1.25511271,3.18213391 C1.28904371,3.01914223 1.32447904,2.79088927 1.38632372,2.56958242 C1.45000703,2.34165253 1.60762739,2.17026088 1.80586466,2.03537679 C2.17893851,1.7814393 2.55451958,1.53089411 2.9264234,1.27517971 C3.00063702,1.22413375 3.07802644,1.20038769 3.15541587,1.20038769" id="Fill-1" fill="#000000" mask="url(#mask-2)"></path>
              </g>
            </g>
          </g>
        </g>
      </g>
    </g>
  </g>
</svg>
