<?xml version="1.0" encoding="UTF-8"?>
<svg xmlns="http://www.w3.org/2000/svg" xmlns:xlink="http://www.w3.org/1999/xlink" width="13px" height="10px" viewBox="0 0 13 10" version="1.1">
  <!-- Generator: Sketch 52.3 (67297) - http://www.bohemiancoding.com/sketch -->
  <title>Group 6</title>
  <desc>Created with Sketch.</desc>
  <defs>
    <polygon id="path-1" points="0 0.101463768 12.9193381 0.101463768 12.9193381 10 0 10"></polygon>
  </defs>
  <g id="FINALS" stroke="none" stroke-width="1" fill="none" fill-rule="evenodd">
    <g id="Get-Started" transform="translate(-239.000000, -667.000000)">
      <g id="FORM" transform="translate(150.000000, 192.000000)">
        <g id="FORM-ELEMENTS" transform="translate(73.000000, 293.000000)">
          <g id="EMAIL-FILL" transform="translate(0.000000, 163.000000)">
            <g id="Group-6" transform="translate(16.000000, 19.000000)">
              <g id="Group-3">
                <mask id="mask-2" fill="white">
                  <use xlink:href="#path-1"></use>
                </mask>
                <g id="Clip-2"></g>
                <path d="M1.76177857,1.20131884 C1.43801667,1.20131884 1.17445714,1.44798551 1.17445714,1.75117391 L1.17445714,8.35030435 C1.17445714,8.65349275 1.43801667,8.90015942 1.76177857,8.90015942 L11.1575286,8.90015942 C11.4812905,8.90015942 11.74485,8.65349275 11.74485,8.35030435 L11.74485,1.75117391 C11.74485,1.44798551 11.4812905,1.20131884 11.1575286,1.20131884 L1.76177857,1.20131884 Z M11.1575286,10.0000145 L1.76177857,10.0000145 C0.790492857,10.0000145 -3.0952381e-05,9.25986957 -3.0952381e-05,8.35030435 L-3.0952381e-05,1.75117391 C-3.0952381e-05,0.841608696 0.790492857,0.101463768 1.76177857,0.101463768 L11.1575286,0.101463768 C12.1288143,0.101463768 12.9193381,0.841608696 12.9193381,1.75117391 L12.9193381,8.35030435 C12.9193381,9.25986957 12.1288143,10.0000145 11.1575286,10.0000145 Z" id="Fill-1" fill="#1A475E" mask="url(#mask-2)"></path>
              </g>
              <path d="M6,6 C5.89046283,6 5.78121316,5.96647224 5.68720095,5.89956313 L0.232767525,2.01078228 C-0.0140504749,1.83479814 -0.0741377923,1.48853984 0.0986491827,1.23715485 C0.271436158,0.985477042 0.611691374,0.924570719 0.858221875,1.10055485 L6,4.76635415 L11.1417781,1.10055485 C11.3881649,0.924570719 11.7285638,0.985477042 11.9013508,1.23715485 C12.0741378,1.48853984 12.0140505,1.83479814 11.7672325,2.01078228 L6.31279905,5.89956313 C6.21878684,5.96647224 6.10953717,6 6,6" id="Fill-4" fill="#1A475E"></path>
            </g>
          </g>
        </g>
      </g>
    </g>
  </g>
</svg>
