<svg xmlns="http://www.w3.org/2000/svg" id="Layer_2" data-name="Layer 2" viewBox="0 0 186 144.8" width="186" height="144.8000030517578"><defs><style>      .cls-1 {        fill: none;        stroke: #1a475e;        stroke-linecap: round;        stroke-linejoin: round;        stroke-width: 5px;      }    </style></defs><g id="Layer_1-2" data-name="Layer 1"><g><path class="cls-1" d="M183.49,51.01c.33,12.43-4.19,24.23-13.69,31.9,0,0-.01-.01-.02-.02-23.85,19.97-48.44,37.98-72.68,58.17-.07,.08-.15,.15-.24,.22-1.67,1.36-4.35,1.35-6.02-.02-24.88-20.42-50.13-38.4-74.62-58.36-9.5-7.68-14.02-19.46-13.69-31.9,.33-12.42,5.38-25.23,14.94-34.64C27.03,6.94,39.48,2.53,51.94,2.5c12.45-.01,24.89,4.3,34.35,12.87,2.23,2.02,4.47,4.05,6.7,6.08,2.24-2.03,4.47-4.05,6.7-6.08,9.46-8.57,21.9-12.88,34.35-12.87,12.47,.03,24.91,4.44,34.49,13.87,9.56,9.41,14.61,22.22,14.94,34.64Z"></path><path class="cls-1" d="M21.08,44.4c.29-13.1,11.41-24.03,24.95-24.23"></path></g></g></svg>