<svg xmlns="http://www.w3.org/2000/svg" xmlns:xlink="http://www.w3.org/1999/xlink" id="uuid-f35e8766-4ec6-4cae-8612-e5643a90ced5" viewBox="0 0 189.4 181.4"><defs><style>.uuid-34e35fc1-7fde-4a0f-ab26-d0f58a918c3e{fill:none;}.uuid-555683eb-bc86-4aec-9b06-d0e52d931820{clip-path:url(#uuid-6edb546a-9385-44f8-aee8-c7928cac933e);}.uuid-49ee13df-7fbe-4670-9ff0-20f5d053acb1{clip-path:url(#uuid-204b37d6-d23c-4155-934a-816d34fd98d8);}.uuid-5cbdf001-ad20-4a59-a68b-2d29be678bed{clip-path:url(#uuid-0d3bcc30-28fa-492d-9930-02ef4b0f5cc5);}.uuid-9d81b4cc-01de-49f9-8f91-52033a846851{clip-path:url(#uuid-60a9977b-f218-48a5-a14f-2f00ca8f7945);}.uuid-e0852c66-ff34-4160-a6be-b2b07984fb79{clip-path:url(#uuid-28e071b3-ab71-4510-8248-a99ffa808132);}.uuid-e8a30e06-c48c-418d-a260-efef6748c9b7{clip-path:url(#uuid-db97c669-30b1-4763-80f0-d9ca08e6485d);}.uuid-7405c877-e511-4c00-84b9-0b0bb40baece{clip-path:url(#uuid-f845f59c-ee13-4b84-8c3e-17238b429fe5);}.uuid-0103b498-433a-4d8c-8246-6f6fd3a86fa9{clip-path:url(#uuid-e71dc8c0-6101-42de-8bf4-15c6b909f318);}.uuid-7474cfbf-cd0b-4f05-ba4f-6a14664d5362{clip-path:url(#uuid-f9c911d8-95b5-4f3e-b774-53d094796945);}.uuid-517ef5c5-a812-4ec7-8bdb-678470f727c4{clip-path:url(#uuid-3c0db601-6521-4bdd-a54a-8c719911372d);}.uuid-e9093922-8c80-4c06-826a-5ed31372efef{clip-path:url(#uuid-286391b0-e18b-4231-af9d-0b934579d8c6);}.uuid-610a862f-3753-483a-ab89-c0eec4c98aee{clip-path:url(#uuid-b999b170-c677-4183-9f4a-63d54dc2745b);}.uuid-5b9f0a88-616d-4e44-8ec0-4476b784a619{clip-path:url(#uuid-7a740e43-932a-4b90-8be9-93877963a4bf);}.uuid-86637fc3-a1fc-4c45-b6bf-7705c6d86506{clip-path:url(#uuid-7fd6209a-8b1a-4c99-a30e-c16d9cce50d0);}.uuid-39e2fb2d-e6d6-4e20-9ba4-7d8e941f6710{clip-path:url(#uuid-15d9b62b-1f7b-4a11-afee-575087abe18e);}.uuid-8340e7b3-5053-4f67-b2d0-3b30f664a2fb{clip-path:url(#uuid-467e53aa-5f49-477a-add6-9ac1661ff103);}.uuid-1fd08906-fc3e-43d6-bc2e-cc440a6bb6ba{clip-path:url(#uuid-377e05bb-43c4-46de-a47d-9d89da32f1a1);}.uuid-ffca0345-96c0-4bae-8f43-190142ba1516{clip-path:url(#uuid-9f677baa-e9a6-4e6d-9cc2-89de0cd280c9);}.uuid-8730743a-89ed-4c1d-8ec8-04b798c217d1{clip-path:url(#uuid-b7425027-8478-4b8d-a7fc-65811f9fdecf);}.uuid-5cda2895-0e15-458d-bec4-62f2aa0f9240{clip-path:url(#uuid-c511e4f1-3bb7-4486-a516-258d9b57835d);}.uuid-e38fc676-fa14-477b-bc04-a6fdb0351931{clip-path:url(#uuid-dd15a018-a649-46e7-8159-c7a9d9f8f62c);}.uuid-bb57700e-3225-43cc-8380-9aca99abd83b{fill:#424773;fill-rule:evenodd;}.uuid-7cdacac6-a28a-4751-8a6a-96bf5c3a20b1{clip-path:url(#uuid-c6fd766b-757a-45ec-bc0b-35d0a52f969a);}.uuid-c543e7f4-7276-4c8e-90fb-1189c3b9b97e{clip-path:url(#uuid-2303f6b2-19a7-43cc-a74a-5159efbd0500);}.uuid-0f4aec32-d05d-40b2-884e-555f39c30393{clip-path:url(#uuid-8f366d19-fa4f-45f2-8f65-e1e4f2cf09a6);}.uuid-6890e34d-a2bf-4e6e-b5fa-64158b8aeca2{clip-path:url(#uuid-ec35c4fb-401f-448a-9227-9d6b981953b1);}.uuid-810ae080-55ab-47e3-9285-dd7e3e3c0b34{clip-path:url(#uuid-6fd624c3-59d0-4053-b73c-416f68a63ca8);}</style><clipPath id="uuid-6fd624c3-59d0-4053-b73c-416f68a63ca8"><rect class="uuid-34e35fc1-7fde-4a0f-ab26-d0f58a918c3e" x="26.7" width="162.7" height="150.7"></rect></clipPath><clipPath id="uuid-0d3bcc30-28fa-492d-9930-02ef4b0f5cc5"><rect class="uuid-34e35fc1-7fde-4a0f-ab26-d0f58a918c3e" x=".6" y="-3.4" width="184" height="184" transform="translate(-1.6 175.5) rotate(-86.4)"></rect></clipPath><clipPath id="uuid-60a9977b-f218-48a5-a14f-2f00ca8f7945"><rect class="uuid-34e35fc1-7fde-4a0f-ab26-d0f58a918c3e" x=".6" y="-3.4" width="184" height="184" transform="translate(-1.6 175.5) rotate(-86.4)"></rect></clipPath><clipPath id="uuid-b999b170-c677-4183-9f4a-63d54dc2745b"><rect class="uuid-34e35fc1-7fde-4a0f-ab26-d0f58a918c3e" x="29.2" y="-2.3" width="156.4" height="156.4" transform="translate(24.9 178.3) rotate(-86.4)"></rect></clipPath><clipPath id="uuid-ec35c4fb-401f-448a-9227-9d6b981953b1"><rect class="uuid-34e35fc1-7fde-4a0f-ab26-d0f58a918c3e" x="134.7" y="2.7" width="48" height="54.7"></rect></clipPath><clipPath id="uuid-f9c911d8-95b5-4f3e-b774-53d094796945"><rect class="uuid-34e35fc1-7fde-4a0f-ab26-d0f58a918c3e" x=".6" y="-3.4" width="184" height="184" transform="translate(-1.6 175.5) rotate(-86.4)"></rect></clipPath><clipPath id="uuid-f845f59c-ee13-4b84-8c3e-17238b429fe5"><rect class="uuid-34e35fc1-7fde-4a0f-ab26-d0f58a918c3e" x=".6" y="-3.4" width="184" height="184" transform="translate(-1.6 175.5) rotate(-86.4)"></rect></clipPath><clipPath id="uuid-dd15a018-a649-46e7-8159-c7a9d9f8f62c"><rect class="uuid-34e35fc1-7fde-4a0f-ab26-d0f58a918c3e" x="1.3" y="44" width="70.7" height="50.7"></rect></clipPath><clipPath id="uuid-9f677baa-e9a6-4e6d-9cc2-89de0cd280c9"><rect class="uuid-34e35fc1-7fde-4a0f-ab26-d0f58a918c3e" x=".6" y="-3.4" width="184" height="184" transform="translate(-1.6 175.5) rotate(-86.4)"></rect></clipPath><clipPath id="uuid-db97c669-30b1-4763-80f0-d9ca08e6485d"><rect class="uuid-34e35fc1-7fde-4a0f-ab26-d0f58a918c3e" x=".6" y="-3.4" width="184" height="184" transform="translate(-1.6 175.5) rotate(-86.4)"></rect></clipPath><clipPath id="uuid-7a740e43-932a-4b90-8be9-93877963a4bf"><rect class="uuid-34e35fc1-7fde-4a0f-ab26-d0f58a918c3e" x="80" y="114.7" width="54.7" height="66.7"></rect></clipPath><clipPath id="uuid-3c0db601-6521-4bdd-a54a-8c719911372d"><rect class="uuid-34e35fc1-7fde-4a0f-ab26-d0f58a918c3e" x=".6" y="-3.4" width="184" height="184" transform="translate(-1.6 175.5) rotate(-86.4)"></rect></clipPath><clipPath id="uuid-b7425027-8478-4b8d-a7fc-65811f9fdecf"><rect class="uuid-34e35fc1-7fde-4a0f-ab26-d0f58a918c3e" x=".6" y="-3.4" width="184" height="184" transform="translate(-1.6 175.5) rotate(-86.4)"></rect></clipPath><clipPath id="uuid-c511e4f1-3bb7-4486-a516-258d9b57835d"><rect class="uuid-34e35fc1-7fde-4a0f-ab26-d0f58a918c3e" x="72.4" y="122" width="67.8" height="51.3" transform="translate(-47.7 244.5) rotate(-86.4)"></rect></clipPath><clipPath id="uuid-7fd6209a-8b1a-4c99-a30e-c16d9cce50d0"><rect class="uuid-34e35fc1-7fde-4a0f-ab26-d0f58a918c3e" x="30.7" y="102.7" width="41.3" height="45.3"></rect></clipPath><clipPath id="uuid-286391b0-e18b-4231-af9d-0b934579d8c6"><rect class="uuid-34e35fc1-7fde-4a0f-ab26-d0f58a918c3e" x=".6" y="-3.4" width="184" height="184" transform="translate(-1.6 175.5) rotate(-86.4)"></rect></clipPath><clipPath id="uuid-467e53aa-5f49-477a-add6-9ac1661ff103"><rect class="uuid-34e35fc1-7fde-4a0f-ab26-d0f58a918c3e" x=".6" y="-3.4" width="184" height="184" transform="translate(-1.6 175.5) rotate(-86.4)"></rect></clipPath><clipPath id="uuid-377e05bb-43c4-46de-a47d-9d89da32f1a1"><rect class="uuid-34e35fc1-7fde-4a0f-ab26-d0f58a918c3e" x="28" y="106.7" width="44" height="40"></rect></clipPath><clipPath id="uuid-204b37d6-d23c-4155-934a-816d34fd98d8"><rect class="uuid-34e35fc1-7fde-4a0f-ab26-d0f58a918c3e" x=".6" y="-3.4" width="184" height="184" transform="translate(-1.6 175.5) rotate(-86.4)"></rect></clipPath><clipPath id="uuid-15d9b62b-1f7b-4a11-afee-575087abe18e"><rect class="uuid-34e35fc1-7fde-4a0f-ab26-d0f58a918c3e" x=".6" y="-3.4" width="184" height="184" transform="translate(-1.6 175.5) rotate(-86.4)"></rect></clipPath><clipPath id="uuid-8f366d19-fa4f-45f2-8f65-e1e4f2cf09a6"><rect class="uuid-34e35fc1-7fde-4a0f-ab26-d0f58a918c3e" y="118.7" width="54.7" height="52"></rect></clipPath><clipPath id="uuid-e71dc8c0-6101-42de-8bf4-15c6b909f318"><rect class="uuid-34e35fc1-7fde-4a0f-ab26-d0f58a918c3e" x=".6" y="-3.4" width="184" height="184" transform="translate(-1.6 175.5) rotate(-86.4)"></rect></clipPath><clipPath id="uuid-6edb546a-9385-44f8-aee8-c7928cac933e"><rect class="uuid-34e35fc1-7fde-4a0f-ab26-d0f58a918c3e" x=".6" y="-3.4" width="184" height="184" transform="translate(-1.6 175.5) rotate(-86.4)"></rect></clipPath><clipPath id="uuid-28e071b3-ab71-4510-8248-a99ffa808132"><rect class="uuid-34e35fc1-7fde-4a0f-ab26-d0f58a918c3e" x="100" y="41.3" width="44" height="44"></rect></clipPath><clipPath id="uuid-c6fd766b-757a-45ec-bc0b-35d0a52f969a"><rect class="uuid-34e35fc1-7fde-4a0f-ab26-d0f58a918c3e" x=".6" y="-3.4" width="184" height="184" transform="translate(-1.6 175.5) rotate(-86.4)"></rect></clipPath><clipPath id="uuid-2303f6b2-19a7-43cc-a74a-5159efbd0500"><rect class="uuid-34e35fc1-7fde-4a0f-ab26-d0f58a918c3e" x=".6" y="-3.4" width="184" height="184" transform="translate(-1.6 175.5) rotate(-86.4)"></rect></clipPath></defs><g id="uuid-1641ca91-f40d-4f57-b1b4-27f9682fe9d7"><g id="uuid-3a6bbd86-57e7-4a99-a84e-40f88a7ba58d"><g class="uuid-810ae080-55ab-47e3-9285-dd7e3e3c0b34"><rect class="uuid-34e35fc1-7fde-4a0f-ab26-d0f58a918c3e" x="26.1" y="-.6" width="163.8" height="151.8"></rect><g class="uuid-5cbdf001-ad20-4a59-a68b-2d29be678bed"><rect class="uuid-34e35fc1-7fde-4a0f-ab26-d0f58a918c3e" x="0" y="-3.9" width="185.1" height="185.1" transform="translate(-1.6 175.5) rotate(-86.4)"></rect><g class="uuid-9d81b4cc-01de-49f9-8f91-52033a846851"><rect class="uuid-34e35fc1-7fde-4a0f-ab26-d0f58a918c3e" x="0" y="-3.9" width="185.1" height="185.1" transform="translate(-1.6 175.5) rotate(-86.4)"></rect><g class="uuid-610a862f-3753-483a-ab89-c0eec4c98aee"><rect class="uuid-34e35fc1-7fde-4a0f-ab26-d0f58a918c3e" x="28.6" y="-2.9" width="157.5" height="157.5" transform="translate(24.9 178.3) rotate(-86.4)"></rect><path class="uuid-bb57700e-3225-43cc-8380-9aca99abd83b" d="M56.9,151.2h-.6v-1.1h.4c85.8-20.9,116.2-64.8,126.6-98,4.5-14.4,5.2-26.4,5.2-32.3s-.8-13.5-1.5-14.2c-.7-.8-7.1-2.4-13.9-3.2-10.7-1.2-22-.7-32.7,1.2-34.3,6.2-81.7,30.9-113.1,113.6-.1.3,0,.8.2,1l9.9,11.2c.2.2.5.3.8.3.3,0,.5,0,.7-.2.4-.4.5-1,0-1.5l-9.4-10.8v-.3C50.6,62.1,80.9,26.6,119.8,11.4c18.2-7,34.7-8,45.2-7.6,10.4.4,17.7,2.2,20.1,3h.3c0,.1,0,.4,0,.4.5,1.8,1.4,9.1.5,20.3-.9,10.6-3.9,26.8-13.3,43.9-19.9,36.7-58.8,62.4-115.8,76.4h-.3c0,0-9.4-10.7-9.4-10.7-.3-.3-1-.5-1.5,0-.3.3-.5,1,0,1.5l9.9,11.2c.2.2.4.3.7.3v1.1c-.5,0-1.1-.2-1.5-.7l-9.9-11.2c-.8-.9-.7-2.2.1-3.1.9-.8,2.3-.7,3.1.1l9,10.3c56.4-13.9,95-39.4,114.7-75.7,9.2-17,12.2-33,13.1-43.5.9-10.5,0-17.5-.4-19.6-2.2-.8-9.3-2.5-19.4-2.9-10.5-.4-26.7.6-44.8,7.6C81.7,27.5,51.7,62.7,30.9,116.9l9,10.2c.8.9.7,2.2-.1,3.1s-1,.6-1.6.6c-.6,0-1.1-.3-1.5-.7l-9.9-11.2c-.5-.5-.7-1.4-.4-2.2C57.8,33.5,105.6,8.6,140.2,2.3c10.8-2,22.2-2.4,33.1-1.2,5.4.6,13.4,2.2,14.7,3.6,1.3,1.4,1.7,9.9,1.7,15s-.7,18.2-5.2,32.7c-10.5,33.5-41.2,77.8-127.5,98.8h0Z"></path><path class="uuid-bb57700e-3225-43cc-8380-9aca99abd83b" d="M56.2,150.6c-.4,0-.8-.2-1.1-.5l-9.9-11.2c-.6-.7-.5-1.7,0-2.3.7-.6,1.7-.5,2.3.1l9.2,10.5c56.8-13.9,95.6-39.5,115.4-76.1,9.3-17.1,12.3-33.2,13.2-43.7.9-10.8,0-18.1-.5-20.1-1.9-.7-9.1-2.6-19.9-3-10.5-.4-26.9.6-45,7.6C81.3,27.1,51.1,62.4,30.2,117l9.2,10.5c.6.7.5,1.7,0,2.3s-1.7.5-2.3-.1l-9.9-11.2c-.4-.4-.5-1.1-.3-1.6C58.2,34,105.9,9.1,140.3,2.9c13.8-2.5,25.5-2,32.9-1.2,6,.7,13.3,2.3,14.3,3.4s1.6,8.6,1.6,14.6-1,19.1-5.2,32.5c-10.5,33.4-41.1,77.5-127.1,98.4h-.5"></path></g></g></g></g><g class="uuid-6890e34d-a2bf-4e6e-b5fa-64158b8aeca2"><rect class="uuid-34e35fc1-7fde-4a0f-ab26-d0f58a918c3e" x="134.1" y="2.1" width="49.1" height="55.8"></rect><g class="uuid-7474cfbf-cd0b-4f05-ba4f-6a14664d5362"><rect class="uuid-34e35fc1-7fde-4a0f-ab26-d0f58a918c3e" x="0" y="-3.9" width="185.1" height="185.1" transform="translate(-1.6 175.5) rotate(-86.4)"></rect><g class="uuid-7405c877-e511-4c00-84b9-0b0bb40baece"><rect class="uuid-34e35fc1-7fde-4a0f-ab26-d0f58a918c3e" x="0" y="-3.9" width="185.1" height="185.1" transform="translate(-1.6 175.5) rotate(-86.4)"></rect><path class="uuid-bb57700e-3225-43cc-8380-9aca99abd83b" d="M180.9,57.7c-.5,0-1.1-.2-1.5-.7L135.1,6.7c-.8-.9-.7-2.2.1-3.1.8-.8,2.2-.8,3.1.1l44.3,50.2c.8.9.7,2.2-.1,3.1-.5.5-1.3.6-1.6.6h0ZM136.7,4.2c-.3,0-.5,0-.7.2-.4.4-.5,1,0,1.5l44.3,50.3c.2.2.4.3.7.3h0c.3-.1.7-.2.8-.3.4-.4.5-1,0-1.5L137.5,4.5c-.2-.2-.5-.3-.8-.3Z"></path><path class="uuid-bb57700e-3225-43cc-8380-9aca99abd83b" d="M180.9,57.1c-.4,0-.8-.2-1.1-.5L135.5,6.3c-.6-.7-.5-1.7.1-2.3s1.7-.5,2.3,0l44.3,50.2c.6.7.5,1.7-.1,2.3s-.8.4-1.2.4"></path></g></g></g><g class="uuid-e38fc676-fa14-477b-bc04-a6fdb0351931"><rect class="uuid-34e35fc1-7fde-4a0f-ab26-d0f58a918c3e" x=".7" y="43.4" width="71.8" height="51.8"></rect><g class="uuid-ffca0345-96c0-4bae-8f43-190142ba1516"><rect class="uuid-34e35fc1-7fde-4a0f-ab26-d0f58a918c3e" x="0" y="-3.9" width="185.1" height="185.1" transform="translate(-1.6 175.5) rotate(-86.4)"></rect><g class="uuid-e8a30e06-c48c-418d-a260-efef6748c9b7"><rect class="uuid-34e35fc1-7fde-4a0f-ab26-d0f58a918c3e" x="0" y="-3.9" width="185.1" height="185.1" transform="translate(-1.6 175.5) rotate(-86.4)"></rect><path class="uuid-bb57700e-3225-43cc-8380-9aca99abd83b" d="M39.3,94.1c-.5,0-1-.3-1.3-.5-6.3-5.6-22-18.3-34.8-17.8h0c-1,0-1.8-.5-2.1-1.4-.3-.7-.2-1.6.4-2.4,1.2-1.2,7.6-7.4,18.6-13.8,10.7-6.3,28-13.9,49.2-14.1,1.2,0,2.2,1,2.2,2.2s-1,2.2-2.2,2.2c-30,.3-52,15.8-60.9,23.3,12.5,2.1,25.6,12.4,32.4,18.5.4.4.7.9.7,1.5,0,.6-.2,1.1-.6,1.6-.4.5-1,.8-1.6.7h0ZM4,74.6c12.9,0,28.5,12.6,34.7,18.1.3.2.5.3.6.3h0c.3,0,.6-.1.7-.4.4-.5.4-1.2,0-1.5-6.9-6.2-20.4-16.8-33-18.4l-1.3-.2,1-.8c8.3-7.2,31-24,62.6-24.3.6,0,1-.4,1-1s-.4-1-1-1c-21,.2-38,7.7-48.6,13.9-10.8,6.3-17.1,12.4-18.3,13.6-.2.3-.4.8-.2,1.2h0c.1.5.4.7,1,.7.2,0,.5,0,.8,0Z"></path><path class="uuid-bb57700e-3225-43cc-8380-9aca99abd83b" d="M39.3,93.5c-.3,0-.7-.2-1-.4-6.2-5.5-22.2-18.4-35.1-17.9-.7,0-1.3-.3-1.5-1-.3-.6-.1-1.3.3-1.8.3-.3,6.8-6.9,18.4-13.7,10.7-6.3,27.9-13.8,48.9-14,.9,0,1.6.7,1.6,1.6s-.7,1.6-1.6,1.6c-31.6.3-54.6,17.6-62.2,24.2,12.5,1.6,26,12,33.3,18.5.7.6.7,1.6,0,2.3-.3.4-.8.6-1.3.5"></path></g></g></g><g class="uuid-5b9f0a88-616d-4e44-8ec0-4476b784a619"><rect class="uuid-34e35fc1-7fde-4a0f-ab26-d0f58a918c3e" x="79.4" y="114.1" width="55.8" height="67.8"></rect><g class="uuid-517ef5c5-a812-4ec7-8bdb-678470f727c4"><rect class="uuid-34e35fc1-7fde-4a0f-ab26-d0f58a918c3e" x="0" y="-3.9" width="185.1" height="185.1" transform="translate(-1.6 175.5) rotate(-86.4)"></rect><g class="uuid-8730743a-89ed-4c1d-8ec8-04b798c217d1"><rect class="uuid-34e35fc1-7fde-4a0f-ab26-d0f58a918c3e" x="0" y="-3.9" width="185.1" height="185.1" transform="translate(-1.6 175.5) rotate(-86.4)"></rect><g class="uuid-5cda2895-0e15-458d-bec4-62f2aa0f9240"><rect class="uuid-34e35fc1-7fde-4a0f-ab26-d0f58a918c3e" x="71.9" y="121.5" width="68.9" height="52.4" transform="translate(-47.7 244.5) rotate(-86.4)"></rect><path class="uuid-bb57700e-3225-43cc-8380-9aca99abd83b" d="M96.4,181.8v-.2c-.3,0-.6,0-.9-.3-.7-.4-1.2-1.3-1-2.2,2-12-7.5-28.1-13.3-36.6-.3-.5-.4-1-.3-1.6.1-.6.4-1.1.9-1.4.5-.3,1-.5,1.6-.3.6.1,1.1.4,1.4.9,5.2,7.5,13.7,21.7,14.3,34.5,3-2.8,7.2-7,11.5-12.7,7.2-9.4,16.4-24.8,19.2-44.8,0-.6.4-1.1.8-1.4.5-.3,1-.5,1.6-.4.6,0,1.1.4,1.5.8.3.5.5,1,.4,1.6-2.9,21.1-12.6,37.2-20.1,47.1-3.4,4.4-8.8,10.8-15.7,16.4-.2.1-.2.2-.3.2h0c-.4.3-.9.5-1.4.5ZM82.9,140.3c-.2,0-.4,0-.6.2-.2.2-.4.4-.4.7,0,.3,0,.5.2.7,5.9,8.7,15.5,25.1,13.5,37.4,0,.3.1.8.5,1h.1c0,.1,0,.1.3.1v.2c.3,0,.5,0,.7-.2,0,0,.2-.1.3-.3,6.8-5.5,12.2-11.9,15.5-16.2,7.5-9.7,17-25.7,19.9-46.5,0-.3,0-.6-.2-.8-.2-.2-.4-.4-.7-.4-.3,0-.6,0-.8.2-.2.2-.4.4-.4.7-2.8,20.3-12.1,35.9-19.4,45.4-4.9,6.3-9.5,10.9-12.6,13.7l-.9.8v-1.3c0-13.3-9.9-28.9-14.1-35.1-.2-.3-.5-.4-.9-.4Z"></path><path class="uuid-bb57700e-3225-43cc-8380-9aca99abd83b" d="M96.5,181c-.3,0-.5,0-.7-.2-.6-.3-.9-1-.8-1.6,2.1-12.8-8.7-30.1-13.4-37-.5-.7-.3-1.7.4-2.2.7-.5,1.7-.3,2.2.4,5.6,8.1,14.2,22.8,14.2,35.4,2.9-2.6,7.6-7.2,12.5-13.6,7.3-9.5,16.5-25.1,19.3-45.1.1-.9.9-1.5,1.8-1.4.9,0,1.5.9,1.4,1.8-2.9,20.8-12.4,36.9-20,46.8-8.2,10.7-15.6,16.3-15.9,16.6-.3.2-.7.3-1.1.3"></path></g></g></g></g><g class="uuid-86637fc3-a1fc-4c45-b6bf-7705c6d86506"><rect class="uuid-34e35fc1-7fde-4a0f-ab26-d0f58a918c3e" x="30.1" y="102.1" width="42.4" height="46.4"></rect><g class="uuid-e9093922-8c80-4c06-826a-5ed31372efef"><rect class="uuid-34e35fc1-7fde-4a0f-ab26-d0f58a918c3e" x="0" y="-3.9" width="185.1" height="185.1" transform="translate(-1.6 175.5) rotate(-86.4)"></rect><g class="uuid-8340e7b3-5053-4f67-b2d0-3b30f664a2fb"><rect class="uuid-34e35fc1-7fde-4a0f-ab26-d0f58a918c3e" x="0" y="-3.9" width="185.1" height="185.1" transform="translate(-1.6 175.5) rotate(-86.4)"></rect><path class="uuid-bb57700e-3225-43cc-8380-9aca99abd83b" d="M69.6,147.6c-.5,0-1.1-.2-1.5-.7l-13.3-15.1c-.8-.9-.7-2.2.1-3.1.4-.4,1-.6,1.5-.6s1.2.2,1.6.7l13.3,15.1c.8.9.7,2.2-.1,3.1-.5.5-1.3.6-1.6.6ZM46.7,121.8c-.5,0-1.1-.2-1.5-.7l-13.3-15.1c-.8-.9-.7-2.2.1-3.1.4-.4,1-.6,1.5-.6s1.2.2,1.6.7l13.3,15.1c.8.9.7,2.2-.1,3.1-.5.5-1.3.6-1.6.6Z"></path><path class="uuid-bb57700e-3225-43cc-8380-9aca99abd83b" d="M46.7,121.2c-.4,0-.8-.2-1.1-.5l-13.3-15.1c-.6-.7-.5-1.7,0-2.3.7-.6,1.7-.5,2.3,0l13.3,15.1c.6.7.5,1.7,0,2.3s-.8.4-1.2.4ZM69.6,147c-.4,0-.8-.2-1.1-.5l-13.3-15.1c-.6-.7-.5-1.7,0-2.3.7-.6,1.7-.5,2.3.1l13.3,15.1c.6.7.5,1.7,0,2.3-.3.3-.8.4-1.2.4"></path></g></g></g><g class="uuid-1fd08906-fc3e-43d6-bc2e-cc440a6bb6ba"><rect class="uuid-34e35fc1-7fde-4a0f-ab26-d0f58a918c3e" x="27.4" y="106.1" width="45.1" height="41.1"></rect><g class="uuid-49ee13df-7fbe-4670-9ff0-20f5d053acb1"><rect class="uuid-34e35fc1-7fde-4a0f-ab26-d0f58a918c3e" x="0" y="-3.9" width="185.1" height="185.1" transform="translate(-1.6 175.5) rotate(-86.4)"></rect><g class="uuid-39e2fb2d-e6d6-4e20-9ba4-7d8e941f6710"><rect class="uuid-34e35fc1-7fde-4a0f-ab26-d0f58a918c3e" x="0" y="-3.9" width="185.1" height="185.1" transform="translate(-1.6 175.5) rotate(-86.4)"></rect><path class="uuid-bb57700e-3225-43cc-8380-9aca99abd83b" d="M32,146.5c-2.4-.1-4.1-2-4.1-4.5.1-7,17.5-26.6,29.6-33.3,3-1.7,5.6-2.5,7.8-2.5s2.3.3,3.3.8c1,.5,2.3,1.9,2.8,3,1.3,2.5.6,5.8-1.9,9.8-7.1,10.7-29.2,26.6-37,26.6h-.2c0,.1-.3,0-.3,0ZM65.3,110.7c-1.5,0-3.6.7-5.8,1.9-11.6,6.5-27.2,25-27.3,29.5h.2c5.4,0,26.3-14,33.3-24.5,1.6-2.4,2.2-4.5,1.7-5.4,0-.2-.3-.5-1.2-1.3-.2-.1-.5-.2-.8-.2Z"></path><path class="uuid-bb57700e-3225-43cc-8380-9aca99abd83b" d="M65.3,110.1c-1.5,0-3.6.6-6.1,2-12,6.7-27.5,25.3-27.6,30,0,.3.3.6.6.6h0c5.2.3,26.8-14,33.9-24.8,1.7-2.6,2.4-4.8,1.7-6-.2-.4-1-1.2-1.3-1.5-.3-.2-.7-.3-1.2-.3ZM32,145.9c-2.1-.1-3.6-1.8-3.6-3.9.1-6.8,17.3-26.1,29.3-32.8,4.5-2.5,8.1-3.1,10.5-1.7.9.5,2.1,1.8,2.6,2.8,1.2,2.4.5,5.5-1.9,9.2-7.1,10.7-29.4,26.7-36.8,26.3h0"></path></g></g></g><g class="uuid-0f4aec32-d05d-40b2-884e-555f39c30393"><rect class="uuid-34e35fc1-7fde-4a0f-ab26-d0f58a918c3e" x="-.6" y="118.1" width="55.8" height="53.1"></rect><g class="uuid-0103b498-433a-4d8c-8246-6f6fd3a86fa9"><rect class="uuid-34e35fc1-7fde-4a0f-ab26-d0f58a918c3e" x="0" y="-3.9" width="185.1" height="185.1" transform="translate(-1.6 175.5) rotate(-86.4)"></rect><g class="uuid-555683eb-bc86-4aec-9b06-d0e52d931820"><rect class="uuid-34e35fc1-7fde-4a0f-ab26-d0f58a918c3e" x="0" y="-3.9" width="185.1" height="185.1" transform="translate(-1.6 175.5) rotate(-86.4)"></rect><path class="uuid-bb57700e-3225-43cc-8380-9aca99abd83b" d="M6.7,170.7c-1.5,0-3,0-4.5,0v-1.1c19.4.7,34-3.1,43.3-11.3,7.3-6.3,8.5-12.7,8.5-12.8,0-.7-.3-1.2-.9-1.3-.6,0-1.1.3-1.2.9,0,.2-1.3,6.1-8,11.8-6,5.1-17.9,11.2-40,10.6h-.6s0-.6,0-.6c2.2-22,9.6-33,15.5-38.4,6.5-5.9,12.5-6.4,12.7-6.4.7,0,1-.6,1-1.1s-.6-.9-1.1-.9c0,0-6.6.5-13.8,6.9-9.3,8.4-14.8,22.4-16.5,41.6,0,.3,0,.6.2.7.2.2.5.3.7.3v1.1c-.5,0-1.1-.2-1.5-.7-.5-.5-.6-1.3-.6-1.6,1.7-19.6,7.4-33.8,16.9-42.4,7.6-6.7,14.5-7.1,14.6-7.1,1.3,0,2.3.9,2.3,2.1s-.9,2.3-2.1,2.3c0,0-5.9.6-12,6.2-5.6,5.1-12.8,15.7-15.1,37,21.4.4,32.8-5.4,38.6-10.4,6.4-5.4,7.6-11.1,7.6-11.2.3-1.2,1.3-1.9,2.5-1.8,1.2.3,1.9,1.3,1.8,2.5,0,.7-1.8,7.4-8.9,13.6-8.8,7.7-22.1,11.6-39.6,11.6Z"></path><path class="uuid-bb57700e-3225-43cc-8380-9aca99abd83b" d="M2.1,170.1c-.4,0-.8-.2-1.1-.5-.3-.3-.4-.8-.4-1.2,1.7-19.4,7.3-33.5,16.7-42,7.2-6.4,13.9-7,14.2-7,.9,0,1.7.6,1.7,1.5s-.6,1.7-1.5,1.7c0,0-6,.5-12.4,6.3-5.8,5.3-13.1,16.2-15.3,38,21.9.5,33.6-5.4,39.6-10.5,6.6-5.6,7.8-11.5,7.8-11.5.2-.9,1-1.4,1.9-1.3.9.2,1.4,1,1.3,1.9,0,.3-1.4,6.9-8.7,13.2-9.5,8.3-24.3,12.1-43.7,11.4h0"></path></g></g></g><g class="uuid-e0852c66-ff34-4160-a6be-b2b07984fb79"><rect class="uuid-34e35fc1-7fde-4a0f-ab26-d0f58a918c3e" x="99.4" y="40.7" width="45.1" height="45.1"></rect><g class="uuid-7cdacac6-a28a-4751-8a6a-96bf5c3a20b1"><rect class="uuid-34e35fc1-7fde-4a0f-ab26-d0f58a918c3e" x="0" y="-3.9" width="185.1" height="185.1" transform="translate(-1.6 175.5) rotate(-86.4)"></rect><g class="uuid-c543e7f4-7276-4c8e-90fb-1189c3b9b97e"><rect class="uuid-34e35fc1-7fde-4a0f-ab26-d0f58a918c3e" x="0" y="-3.9" width="185.1" height="185.1" transform="translate(-1.6 175.5) rotate(-86.4)"></rect><path class="uuid-bb57700e-3225-43cc-8380-9aca99abd83b" d="M121.6,85.3c-.5,0-1,0-1.5,0-5.9-.4-11.2-3-15.1-7.4-3.9-4.4-5.8-10-5.4-15.8.4-5.8,3-11.2,7.4-15.1,4-3.5,9.1-5.5,14.4-5.5s1,0,1.5,0c5.9.4,11.2,3,15.1,7.4,3.9,4.4,5.8,10,5.4,15.8-.4,5.8-3,11.2-7.4,15.1-4,3.5-9.1,5.5-14.4,5.5ZM121.4,45.8c-4.3,0-8.4,1.6-11.6,4.4-7.3,6.4-8,17.5-1.6,24.8,3.1,3.5,7.4,5.6,12.1,5.9.4,0,.7,0,1.1,0,4.3,0,8.4-1.6,11.6-4.4,7.3-6.4,8-17.5,1.6-24.8-3.1-3.5-7.4-5.6-12.1-5.9-.4,0-.7,0-1.1,0Z"></path><path class="uuid-bb57700e-3225-43cc-8380-9aca99abd83b" d="M122.5,45.3c-4.8-.3-9.5,1.3-13.1,4.5-7.5,6.6-8.2,18.1-1.6,25.6,3.2,3.6,7.6,5.8,12.5,6.1,4.8.3,9.5-1.3,13.1-4.5,7.5-6.6,8.2-18.1,1.6-25.6-3.2-3.6-7.6-5.8-12.5-6.1h0ZM120.1,84.7c-5.7-.4-10.9-2.9-14.7-7.2-7.8-8.8-6.9-22.3,1.9-30.1,4.3-3.8,9.8-5.7,15.5-5.3s10.9,2.9,14.7,7.2h0c7.8,8.8,6.9,22.3-1.9,30.1-4.3,3.8-9.8,5.7-15.5,5.3"></path></g></g></g></g></g></svg>