<svg xmlns="http://www.w3.org/2000/svg" id="Layer_2" data-name="Layer 2" viewBox="0 0 183.82 179.99" width="183.82000732421875" height="179.99000549316406"><defs><style>      .cls-1 {        fill: none;        stroke: #1a475e;        stroke-linecap: round;        stroke-linejoin: round;        stroke-width: 5px;      }    </style></defs><g id="Layer_1-2" data-name="Layer 1"><rect class="cls-1" x="50.49" y="2.5" width="80.96" height="80.96" rx="12" ry="12"></rect><rect class="cls-1" x="2.5" y="96.53" width="80.96" height="80.96" rx="12" ry="12"></rect><rect class="cls-1" x="100.37" y="96.53" width="80.96" height="80.96" rx="12" ry="12"></rect><path class="cls-1" d="M90.04,55.52l-9.08,4.77c-1.47,.77-3.18-.47-2.9-2.11l1.73-10.11c.11-.65-.1-1.31-.58-1.77l-7.34-7.16c-1.19-1.16-.53-3.17,1.11-3.41l10.15-1.47c.65-.09,1.21-.5,1.51-1.09l4.54-9.2c.73-1.49,2.85-1.49,3.59,0l4.54,9.2c.29,.59,.85,1,1.51,1.09l10.15,1.47c1.64,.24,2.3,2.25,1.11,3.41l-7.34,7.16c-.47,.46-.69,1.12-.58,1.77l1.73,10.11c.28,1.63-1.43,2.88-2.9,2.11l-9.08-4.77c-.58-.31-1.28-.31-1.86,0Z"></path><path class="cls-1" d="M40.25,124.67l-13.04,22.58c-.77,1.33,.19,3,1.73,3h26.08c1.54,0,2.5-1.67,1.73-3l-13.04-22.58c-.77-1.33-2.69-1.33-3.46,0Z"></path><circle class="cls-1" cx="140.84" cy="137.01" r="14.26"></circle></g></svg>