<?xml version="1.0" encoding="UTF-8"?>
<svg xmlns="http://www.w3.org/2000/svg" version="1.1" width="512px" height="512px" transform="rotate(0) scale(1, 1)">
  <path d="M0 0 C1.25492101 -0.00569124 2.50984202 -0.01138248 3.80279094 -0.01724619 C5.20835156 -0.01853895 6.61391228 -0.01972694 8.01947308 -0.02082157 C9.50256522 -0.02555014 10.98565607 -0.03070072 12.46874541 -0.03623921 C16.55913727 -0.05017608 20.64952021 -0.05773756 24.7399298 -0.0642122 C28.2446043 -0.07057433 31.74926407 -0.08064561 35.25392941 -0.09077286 C46.80161078 -0.12412693 58.34930111 -0.1456226 69.89701489 -0.16397271 C72.90244487 -0.16876579 75.90787449 -0.17374933 78.91330409 -0.17877793 C97.56397339 -0.20974449 116.21464575 -0.23643865 134.86533356 -0.25319672 C139.18703307 -0.25714642 143.50873254 -0.26114938 147.83043194 -0.2652216 C148.9046107 -0.26622996 149.97878946 -0.26723832 151.0855191 -0.26827724 C168.49644028 -0.28529339 185.90721955 -0.32641212 203.3180714 -0.37724458 C221.18026447 -0.42896726 239.04238447 -0.45813182 256.90465182 -0.4653936 C266.93905853 -0.47006236 276.97323278 -0.48488165 287.0075655 -0.5251379 C295.55120084 -0.55937153 304.09456181 -0.57340435 312.63826183 -0.56071376 C316.99951653 -0.55487133 321.36019048 -0.5588612 325.7213583 -0.5888834 C329.71199386 -0.61613141 333.70163295 -0.6158352 337.69228955 -0.59337295 C339.13781506 -0.59013514 340.58340592 -0.59710483 342.02882216 -0.61517017 C352.47929145 -0.73789197 352.47929145 -0.73789197 356.10753399 1.17320299 C359.51979852 4.58305934 359.74632882 8.75535431 359.81719714 13.30053556 C359.80652389 14.2324499 359.79585063 15.16436423 359.78485394 16.12451839 C359.79738745 17.62678838 359.79738745 17.62678838 359.81017417 19.15940726 C359.83210975 22.51309188 359.81849461 25.8656821 359.80504131 29.21939754 C359.81349358 31.62420134 359.82413724 34.02899828 359.83681011 36.43378353 C359.8591565 41.60991459 359.86626409 46.78582804 359.85946369 51.96199322 C359.84965798 59.4457773 359.86740755 66.92929765 359.891831 74.41303904 C359.93071246 86.55552896 359.94738305 98.69794339 359.95006084 110.84049129 C359.95270932 122.63415047 359.9658338 134.42772144 359.99302959 146.22135067 C359.99470297 146.94860125 359.99637635 147.67585183 359.99810044 148.42514031 C360.00656006 152.0736303 360.01522544 155.72211978 360.02399313 159.37060905 C360.0964362 189.62699706 360.13245215 219.88333242 360.14561749 250.1398077 C360.53985409 249.74335049 360.93409069 249.34689327 361.34027386 248.9384222 C365.44139078 244.81519375 369.54601398 240.69548 373.65269756 236.57779598 C375.18517734 235.04028529 376.71675868 233.50187857 378.24742413 231.96256161 C380.44681157 229.75105436 382.64940234 227.5427821 384.85264874 225.3351202 C385.53712582 224.64548183 386.2216029 223.95584347 386.92682171 223.24530697 C387.88747791 222.28453747 387.88747791 222.28453747 388.86754131 221.30435848 C389.42935604 220.74032314 389.99117077 220.1762878 390.57001019 219.59516048 C393.32312801 217.05216789 395.51011059 215.75432278 399.20811749 215.4523077 C403.53771228 215.64726547 405.42303163 216.83859973 408.54991436 219.78678036 C409.42389874 220.60777218 410.29788311 221.428764 411.19835186 222.27463436 C412.18287554 223.22752535 413.16518595 224.18270682 414.14561749 225.1398077 C414.67280376 225.65318439 415.19999004 226.16656109 415.74315166 226.69549465 C420.06737688 230.92183531 424.34259817 235.19650123 428.61436749 239.4757452 C429.98519352 240.84589622 431.35616786 242.21589888 432.72728252 243.58576107 C435.57961566 246.43663003 438.43015751 249.28927447 441.27940655 252.14322567 C444.93217721 255.80173098 448.58947094 259.45567681 452.24808788 263.10833454 C455.07053989 265.92717855 457.89061284 268.74839293 460.7099638 271.57033825 C462.05845023 272.91949133 463.4076787 274.26790316 464.75766277 275.61555767 C466.63615392 277.4915143 468.51141873 279.37063737 470.38585186 281.25064754 C470.94269665 281.8054681 471.49954144 282.36028866 472.07326031 282.93192196 C477.97261214 288.86389329 477.97261214 288.86389329 478.64561749 293.8273077 C478.41264923 302.17249574 469.83744152 308.73621667 464.27061749 314.2023077 C463.60159405 314.87068661 462.93257061 315.53906551 462.24327374 316.22769833 C455.67733006 322.73671185 448.69410785 328.71066858 441.5766983 334.60609531 C428.61424455 345.36970105 416.04466024 356.54383247 403.70811749 368.0148077 C403.19077148 368.49475406 402.67342547 368.97470041 402.14040232 369.4691906 C377.75726579 392.13465755 355.56742478 413.56127752 353.93014812 448.75226498 C353.58894021 463.83563467 354.95893475 479.2888756 357.6182127 494.13828182 C357.75017009 494.90941877 357.88212748 495.68055573 358.01808357 496.47506046 C358.26916616 497.89623816 358.54550789 499.31330612 358.85296249 500.72336292 C359.51876348 504.46325019 359.21808113 506.0182071 357.25583935 509.31102753 C354.91026561 511.93717211 353.23095277 512.59597164 349.74208641 512.89764786 C347.94004478 512.93192617 346.13719362 512.93307033 344.33499432 512.90843868 C342.84247276 512.92353695 342.84247276 512.92353695 341.31979924 512.93894023 C337.98151395 512.96524017 334.64483392 512.94859 331.30650616 512.93204403 C328.91482708 512.94181014 326.52315721 512.9541148 324.13150311 512.96877193 C318.30665809 512.99714987 312.4823209 512.99725682 306.657433 512.98332111 C301.92169018 512.97250149 297.18607614 512.97303071 292.45032978 512.98164082 C291.77612887 512.98284894 291.10192796 512.98405706 290.40729672 512.98530179 C289.0376022 512.98779248 287.66790772 512.99030346 286.29821328 512.99283453 C273.45322111 513.01511773 260.60847941 512.99983921 247.76351128 512.97224822 C236.74967902 512.9495432 225.73631165 512.96119116 214.72252178 512.99747372 C201.92794626 513.0396182 189.13365896 513.05870387 176.33901483 513.04244918 C174.97346076 513.04078957 173.60790664 513.03916621 172.24235249 513.03757954 C171.57051022 513.0367946 170.89866795 513.03600965 170.20646682 513.03520093 C165.47970489 513.03131485 160.75315546 513.04401053 156.02643681 513.06330967 C149.65760934 513.08744174 143.28972594 513.07747851 136.92096424 513.04132175 C134.58450776 513.0336688 132.24797717 513.03792123 129.91157055 513.05499554 C126.71903046 513.07640004 123.52957186 513.05458219 120.33719158 513.02196407 C119.41451353 513.03826124 118.49183547 513.05455842 117.54119748 513.07134944 C111.35585101 512.94490637 108.28237204 511.32239054 103.89336938 506.98376447 C103.31661125 506.37525874 102.73985313 505.766753 102.14561749 505.1398077 C101.23932126 504.27503905 100.33302504 503.4102704 99.39926529 502.51929665 C98.57463759 501.69504598 97.7500099 500.87079531 96.90039349 500.02156734 C96.43282224 499.55555609 95.96525099 499.08954483 95.48351091 498.60941201 C93.94672715 497.07655716 92.4134716 495.54022522 90.88023663 494.00382137 C89.76759889 492.89254118 88.65474908 491.78147328 87.54170513 490.67059994 C84.54194284 487.67536683 81.54531624 484.67701537 78.5494101 481.67792583 C75.40837533 478.53434781 72.2648885 475.39322327 69.12179852 472.2517004 C63.85214202 466.98385827 58.58458692 461.71392177 53.31822491 456.44278622 C47.22606902 450.34517215 41.13029618 444.25119172 35.03266531 438.15905303 C29.79162619 432.92254575 24.55253051 427.68410006 19.31506723 422.44401628 C16.18906785 419.3164567 13.0623938 416.18957965 9.93396473 413.06445026 C6.9989637 410.13232954 4.06640376 407.19778939 1.13574123 404.26133251 C0.05822729 403.18249256 -1.02014549 402.10450962 -2.0994215 401.02743244 C-3.56794677 399.56162443 -5.03338139 398.09279598 -6.49804401 396.62312984 C-7.32003253 395.8007643 -8.14202105 394.97839876 -8.9889183 394.13111305 C-12.18029271 390.72445379 -11.98154909 388.49785049 -11.98860359 383.91060829 C-11.99213194 382.93689049 -11.99213194 382.93689049 -11.99573156 381.94350162 C-12.0024397 379.74725768 -12.0019628 377.55107265 -12.00155354 375.3548193 C-12.00485103 373.77273239 -12.00857635 372.19064632 -12.01269501 370.60856134 C-12.02273608 366.24452749 -12.02643518 361.8805074 -12.02908432 357.51646364 C-12.03298111 352.81628512 -12.04255982 348.11611755 -12.05129719 343.41594601 C-12.07107859 332.05737185 -12.0811296 320.69879677 -12.09002498 309.34020969 C-12.09440484 303.9957576 -12.0997724 298.65130651 -12.10501385 293.3068552 C-12.12202725 275.54872468 -12.1365227 257.79059478 -12.14376259 240.03245735 C-12.14567259 235.42200056 -12.14759291 230.81154377 -12.14954853 226.201087 C-12.15003227 225.05513348 -12.15051601 223.90917996 -12.15101441 222.72850058 C-12.15931948 204.15364425 -12.18466394 185.57885223 -12.21712921 167.00402399 C-12.25016401 147.94853612 -12.26820808 128.89308096 -12.27140683 109.83756429 C-12.27357517 99.13252293 -12.28237116 88.42757535 -12.307868 77.72256184 C-12.32952611 68.60803943 -12.33764958 59.49363358 -12.32790122 50.37908836 C-12.32334238 45.72632669 -12.3253343 41.07380576 -12.34466267 36.42107677 C-12.36219449 32.16416736 -12.3613785 27.90767607 -12.34576537 23.65076283 C-12.34337404 22.10834313 -12.34779128 20.56589522 -12.35959402 19.02351882 C-12.37462088 16.9306769 -12.36510699 14.83933428 -12.34936714 12.74653053 C-12.35034395 11.58301243 -12.35132076 10.41949432 -12.35232717 9.22071809 C-11.74820382 5.48285307 -10.47066682 3.82545312 -7.85438251 1.1398077 C-5.14648918 -0.21413897 -3.03348236 0.00799389 0 0 Z M9.14561749 20.1398077 C9.14561749 137.2898077 9.14561749 254.4398077 9.14561749 375.1398077 C61.61561749 375.6348077 61.61561749 375.6348077 115.14561749 376.1398077 C122.14561749 379.1398077 122.14561749 379.1398077 123.56318951 381.17220211 C124.44365935 385.65840013 124.45452907 390.05910275 124.46446514 394.62149715 C124.47451077 395.67561291 124.48455639 396.72972866 124.49490643 397.81578732 C124.5257608 401.29488239 124.54278007 404.77390043 124.55967999 408.25308895 C124.57838979 410.66733622 124.59796306 413.08157695 124.61836529 415.49581051 C124.66971214 421.84644364 124.70932436 428.19709798 124.7465086 434.54782772 C124.79357048 442.1695881 124.85517934 449.79124304 124.91435528 457.41291714 C125.00259862 468.98850483 125.07234113 480.56407199 125.14561749 492.1398077 C151.54561749 492.1398077 177.94561749 492.1398077 205.14561749 492.1398077 C202.45558026 489.44977047 200.26404379 487.87493054 197.03233624 485.9601202 C196.0313792 485.36070614 195.03042217 484.76129208 193.99913311 484.14371395 C191.90055119 482.89828779 189.80159703 481.65348865 187.70225811 480.40933895 C174.04709772 472.22850521 174.04709772 472.22850521 172.27061749 468.11246395 C171.98146136 463.69379684 172.11086595 460.20931077 174.14561749 456.1398077 C174.98419292 455.7376202 174.98419292 455.7376202 175.83970928 455.3273077 C179.16883902 453.61286757 181.66923233 451.08124562 184.35264874 448.5148077 C184.95034069 447.94481548 185.54803265 447.37482327 186.16383648 446.78755856 C200.4327155 433.05528517 211.54873775 420.11573164 220.53477764 402.3038702 C223.29082836 396.89034833 226.25537249 391.59996198 229.27061749 386.3273077 C229.83788555 385.33295712 230.40515362 384.33860653 230.98961163 383.31412411 C235.3640261 375.90239216 240.38493705 369.95264573 246.79405499 364.23746395 C247.57007061 363.54523739 248.34608624 362.85301083 249.14561749 362.1398077 C249.14561749 361.8098077 249.14561749 361.4798077 249.14561749 361.1398077 C248.42686034 361.13557576 247.7081032 361.13134382 246.96756554 361.12698364 C229.491624 361.02375144 212.01572438 360.91512487 194.53985405 360.80046844 C186.08871314 360.74515241 177.637568 360.69167305 169.18638897 360.64249325 C161.82173201 360.59963159 154.45710593 360.55334857 147.09249669 360.50292915 C143.1917533 360.4763442 139.29101597 360.4514915 135.39023685 360.43073368 C131.72050172 360.41115135 128.05082528 360.38700276 124.38114262 360.35931683 C122.38860204 360.34548298 120.39602952 360.33652226 118.4034605 360.32768917 C117.22135494 360.31790035 116.03924938 360.30811153 114.82132244 360.29802608 C113.2768583 360.28834726 113.2768583 360.28834726 111.70119286 360.2784729 C109.14561749 360.1398077 109.14561749 360.1398077 106.14561749 359.1398077 C104.31978139 354.98937052 103.7360331 350.54642999 104.83311749 346.1398077 C105.48280499 344.6548077 105.48280499 344.6548077 106.14561749 343.1398077 C109.52390513 342.01371182 111.62001504 342.17471725 115.16098309 342.43916988 C116.42151501 342.52765194 117.68204693 342.616134 118.98077679 342.70729733 C119.6621401 342.75715723 120.34350342 342.80701714 121.04551411 342.85838795 C136.96631718 344.01253926 152.89058441 344.6926031 168.84416389 345.18975258 C178.04883519 345.48639864 187.21319308 345.90486937 196.3939085 346.64200497 C235.67636001 349.71476678 270.9649224 347.48156756 302.37070709 321.18789893 C328.79557803 298.10182283 341.33000779 272.78885633 343.912989 237.80635845 C346.04618504 206.02854784 343.95641903 174.12989745 342.39561749 142.3898077 C340.99311749 102.0473077 339.59061749 61.7048077 338.14561749 20.1398077 C229.57561749 20.1398077 121.00561749 20.1398077 9.14561749 20.1398077 Z M395.35230011 244.80404377 C394.81048019 245.34877653 394.26866027 245.89350929 393.71042156 246.45474911 C393.13786981 247.02644644 392.56531805 247.59814377 391.97541624 248.18716526 C390.0413975 250.11952589 388.11099415 252.05545933 386.18052959 253.9913702 C384.80130396 255.37087767 383.42185857 256.75016546 382.04220867 258.12924862 C378.28394633 261.8872228 374.52878576 265.64828295 370.77415061 269.40988064 C366.85479356 273.33546829 362.9326243 277.25824406 359.01074505 281.18131161 C351.5785055 288.61666534 344.14881979 296.05456561 336.72003514 303.49337101 C328.26506287 311.95950172 319.80726744 320.42280961 311.34922683 328.88587475 C293.9448676 346.30070034 276.544079 363.71909007 259.14561749 381.1398077 C260.67849335 384.36295457 262.28712436 386.51716368 264.84092999 389.0304327 C265.55635967 389.73941708 266.27178936 390.44840145 267.00889874 391.1788702 C267.75526592 391.90847958 268.50163311 392.63808895 269.27061749 393.3898077 C270.02471905 394.13488583 270.77882061 394.87996395 271.55577374 395.6476202 C273.4146252 397.48294191 275.27798753 399.3134268 277.14561749 401.1398077 C282.47947261 396.68743028 287.43433222 391.9835017 292.32823467 387.05484676 C293.1144772 386.26714397 293.90071972 385.47944118 294.71078777 384.66786861 C296.40661153 382.96825762 298.10127967 381.26749295 299.79490185 379.56568813 C302.47389827 376.87387669 305.15605141 374.18524679 307.8390379 371.49741268 C313.52737637 365.79767771 319.21179218 360.09404235 324.89561749 354.3898077 C331.49684087 347.76492265 338.09973553 341.141722 344.70681286 334.52267361 C347.35177065 331.87122381 349.99370466 329.21678578 352.63554668 326.56223202 C354.25040987 324.94373777 355.86541279 323.32538293 357.48057842 321.70719051 C358.2162051 320.96639751 358.95183178 320.22560452 359.70975018 319.46236324 C360.38530453 318.7867384 361.06085888 318.11111355 361.75688457 317.41501522 C362.34234932 316.82732986 362.92781406 316.23964451 363.53102016 315.63415051 C367.37546173 312.0760413 369.97630222 311.71394301 374.98546124 311.8116827 C377.14561749 312.1398077 377.14561749 312.1398077 379.64561749 314.0148077 C382.31621141 317.79814909 382.48936468 320.11104283 381.90382862 324.64500904 C380.40179283 329.58726944 376.58774878 332.73345118 372.95396709 336.23966122 C372.09550686 337.09928967 371.23704662 337.95891811 370.35257244 338.84459591 C368.00710636 341.18545966 365.64538463 343.50721013 363.27446342 345.82211328 C360.79639491 348.24999697 358.34112817 350.70072503 355.88330364 353.14906979 C351.23138938 357.77616991 346.55947167 362.38250793 341.87993008 366.98164743 C336.55101954 372.22097945 331.24494636 377.48318605 325.94062316 382.74739087 C315.03408076 393.57042788 304.09936224 404.36453288 293.14561749 415.1398077 C294.67849335 418.36295457 296.28712436 420.51716368 298.84092999 423.0304327 C299.91407452 424.09390926 299.91407452 424.09390926 301.00889874 425.1788702 C301.75526592 425.90847958 302.50163311 426.63808895 303.27061749 427.3898077 C304.02471905 428.13488583 304.77882061 428.87996395 305.55577374 429.6476202 C307.4146252 431.48294191 309.27798753 433.3134268 311.14561749 435.1398077 C315.64210067 431.3725263 319.93927878 427.49044379 324.0745573 423.3311224 C324.62773429 422.77879983 325.18091128 422.22647727 325.75085121 421.65741765 C327.58330416 419.82659726 329.41218622 417.9922529 331.24107647 416.15787411 C332.56207429 414.83659391 333.88329296 413.51553447 335.20471478 412.19467831 C338.77667646 408.62300262 342.34555431 405.04826002 345.91387343 401.47294569 C349.64899839 397.73155424 353.38697007 393.99300911 357.12463665 390.25415707 C364.19543891 383.1802512 371.26368894 376.10380087 378.33101851 369.02642572 C386.3798334 360.96641954 394.43150017 352.90926487 402.48340404 344.85234475 C419.0406434 328.28466298 435.59431021 311.71341554 452.14561749 295.1398077 C450.40022723 291.4118198 448.27176675 289.01830119 445.34459209 286.09586239 C444.85822781 285.60759975 444.37186352 285.11933712 443.87076092 284.61627865 C442.26800037 283.00982453 440.65817371 281.41066464 439.04796124 279.8116827 C437.93183838 278.69675216 436.81608516 277.58145147 435.70068645 276.46579647 C433.36599393 274.13266616 431.02798483 271.8029294 428.68736553 269.4757452 C425.68028832 266.4857067 422.67988549 263.48907797 419.68169594 260.49013042 C417.38039716 258.18910283 415.07650728 255.89068491 412.77171803 253.59315395 C411.6638704 252.48849767 410.55663548 251.38322657 409.45001316 250.2773428 C407.90826131 248.7377468 406.3632699 247.20148172 404.81724834 245.66617489 C403.93725674 244.78999508 403.05726513 243.91381527 402.15060711 243.01108456 C398.75125729 239.83843739 398.32335198 241.84507259 395.35230011 244.80404377 Z M24.14561749 396.1398077 C28.77206093 401.59157527 28.77206093 401.59157527 33.63177776 406.75295162 C34.56333187 407.68873547 34.56333187 407.68873547 35.51370525 408.64342403 C36.17316647 409.30086102 36.83262768 409.958298 37.51207256 410.63565731 C38.22335308 411.34869015 38.9346336 412.06172298 39.66746807 412.79636288 C41.99753478 415.13079863 44.33120132 417.46159607 46.66514874 419.79215145 C48.29100195 421.41867868 49.91670673 423.0453543 51.54226971 424.67217159 C54.9373197 428.06869146 58.33416116 431.46340664 61.73228741 434.85684872 C66.09842269 439.21725979 70.46001691 443.58218135 74.82030487 447.94843864 C78.17007731 451.30181265 81.52221296 454.65281611 84.87508488 458.00309086 C86.48546323 459.61280023 88.09509385 461.22325799 89.70397663 462.83446217 C91.94229367 465.07530202 94.18376191 467.31293989 96.42613506 469.54971981 C97.43050861 470.55712971 97.43050861 470.55712971 98.45517254 471.58489132 C100.92131271 474.65979562 100.92131271 474.65979562 104.14561749 476.1398077 C104.14561749 449.7398077 104.14561749 423.3398077 104.14561749 396.1398077 C77.74561749 396.1398077 51.34561749 396.1398077 24.14561749 396.1398077 Z M245.14561749 400.1398077 C242.80972129 404.04234303 240.49524863 407.95649881 238.1998167 411.88297176 C237.41588553 413.2171155 236.62618945 414.54788911 235.83067608 415.87515926 C234.6885736 417.78294093 233.56770656 419.70185589 232.45030499 421.6241827 C232.09000195 422.21600338 231.72969891 422.80782406 231.35847759 423.4175787 C230.24057564 425.28681502 230.24057564 425.28681502 229.14561749 428.1398077 C230.28507559 431.26446537 232.06407753 433.303165 234.40196514 435.62320614 C235.06249889 436.28358883 235.72303265 436.94397152 236.40358257 437.62436581 C237.11509472 438.32555538 237.82660686 439.02674496 238.55967999 439.7491827 C239.28931957 440.47599239 240.01895916 441.20280209 240.77070904 441.95163631 C243.09935629 444.26909968 245.43486575 446.57950721 247.77061749 448.8898077 C249.35180401 450.46096214 250.93253873 452.03257141 252.51280499 453.60465145 C256.38518439 457.45499423 260.2632192 461.29956887 264.14561749 465.1398077 C270.28871994 462.83623183 275.7924819 459.47718415 281.45811749 456.2023077 C282.58024639 455.56873348 283.7023753 454.93515926 284.85850811 454.28238583 C285.91876202 453.66943661 286.97901592 453.05648739 288.07139874 452.42496395 C289.04504375 451.86688046 290.01868877 451.30879696 291.02183819 450.73380184 C292.07310894 449.94477474 292.07310894 449.94477474 293.14561749 449.1398077 C293.46321108 446.0712968 293.46321108 446.0712968 291.41273785 444.03270626 C290.6015852 443.22218304 289.79043255 442.41165981 288.95469952 441.57657528 C288.04020031 440.65584728 287.1257011 439.73511929 286.1834898 438.78649044 C285.17377628 437.7854641 284.16374873 436.78475444 283.15342999 435.78433895 C282.12637888 434.75780628 281.09984527 433.73075561 280.07380962 432.70320797 C277.92127907 430.55076718 275.76366734 428.40359467 273.60216045 426.26016903 C270.82707869 423.50778878 268.06322046 420.74445818 265.30284595 417.97733688 C263.18432238 415.85547758 261.06085322 413.73862653 258.93574429 411.62336445 C257.9145012 410.60597943 256.89461384 409.58723172 255.87609005 408.56712437 C254.45409461 407.14475952 253.02488472 405.72961815 251.59532452 404.31485653 C250.78258068 403.50672009 249.96983685 402.69858364 249.13246441 401.86595821 C247.3326438 399.92119272 247.3326438 399.92119272 245.14561749 400.1398077 Z M337.14561749 439.1398077 C335.8991279 440.42182896 334.6841388 441.73448247 333.48155499 443.05777645 C322.38559309 454.94434282 311.67135924 463.1337409 297.19542217 470.54947567 C291.71694466 473.40624821 286.37159044 476.49020792 281.02061749 479.5773077 C279.5003294 480.42881405 279.5003294 480.42881405 277.94932842 481.29752254 C277.00090069 481.84231258 276.05247295 482.38710262 275.07530499 482.94840145 C274.24240948 483.42076229 273.40951397 483.89312313 272.5513792 484.37979794 C269.41308262 486.52673741 269.41308262 486.52673741 265.14561749 492.1398077 C289.23561749 492.1398077 313.32561749 492.1398077 338.14561749 492.1398077 C338.14561749 474.6498077 338.14561749 457.1598077 338.14561749 439.1398077 C337.81561749 439.1398077 337.48561749 439.1398077 337.14561749 439.1398077 Z M213.56334209 447.6085577 C212.56572857 448.61402645 212.56572857 448.61402645 211.54796124 449.6398077 C210.82930889 450.3616827 210.11065655 451.0835577 209.37022686 451.8273077 C208.61548077 452.5904327 207.86073467 453.3535577 207.08311749 454.1398077 C206.3245042 454.9029327 205.56589092 455.6660577 204.78428936 456.4523077 C202.90249243 458.34593983 201.02305944 460.24185932 199.14561749 462.1398077 C201.6815576 464.95829781 204.5485776 466.75281511 207.77452374 468.72183895 C208.89278545 469.40697567 210.01104717 470.09211239 211.16319561 470.79801083 C212.34479665 471.51617492 213.52643748 472.23427354 214.70811749 472.9523077 C215.86264477 473.65831126 217.01694383 474.36468818 218.17100811 475.07144833 C220.42466677 476.45138753 222.68377643 477.82064209 224.94688702 479.18521786 C227.00898196 480.44526458 229.053521 481.73473497 231.0748167 483.05924129 C232.39183575 483.90929745 232.39183575 483.90929745 233.73546124 484.77652645 C234.49592754 485.28272518 235.25639385 485.78892391 236.03990459 486.310462 C238.11165188 487.39775483 238.11165188 487.39775483 240.07409954 486.41820431 C242.34126286 485.019069 243.71747809 483.57434241 245.39561749 481.5148077 C245.91639874 480.88316708 246.43717999 480.25152645 246.97374249 479.6007452 C247.36046124 479.11863583 247.74717999 478.63652645 248.14561749 478.1398077 C243.61011533 473.57904307 239.07077004 469.02213055 234.52867413 464.4679327 C232.98252837 462.91674429 231.43727942 461.36466146 229.89293194 459.8116827 C227.67870768 457.58538989 225.46132522 455.36228663 223.24327374 453.1398077 C222.54847408 452.43984676 221.85367443 451.73988583 221.13782024 451.01871395 C220.49723171 450.37804989 219.85664318 449.73738583 219.19664288 449.0773077 C218.63038692 448.50883114 218.06413097 447.94035458 217.48071575 447.35465145 C215.53302653 445.58239383 215.52573233 445.7869654 213.56334209 447.6085577 Z " fill="#1a475e" transform="translate(22.854382514953613,-0.13980770111083984)"></path>
  <path d="M0 0 C0.83408669 -0.00467997 1.66817339 -0.00935994 2.52753544 -0.01418173 C5.30880426 -0.02610114 8.08957756 -0.01668651 10.87084961 -0.00723267 C12.87035407 -0.01129972 14.86985628 -0.01664236 16.86935425 -0.02316284 C22.29078061 -0.03682623 27.71203549 -0.03154176 33.13346481 -0.02202559 C38.81033537 -0.01442398 44.48719136 -0.021476 50.1640625 -0.02618408 C59.69688551 -0.03164016 69.22963876 -0.02445386 78.76245117 -0.01016235 C89.77959693 0.00616384 100.79657612 0.00087523 111.81371784 -0.01564157 C121.27717418 -0.02926061 130.74058041 -0.03117404 140.20404339 -0.02332556 C145.85424721 -0.01865136 151.50437276 -0.0180173 157.15457153 -0.02793503 C162.4668265 -0.03660843 167.77886696 -0.03057578 173.09109879 -0.01325226 C175.03935515 -0.00928944 176.98762961 -0.01041794 178.93587875 -0.01704025 C181.5979575 -0.02525388 184.25935144 -0.0149364 186.92138672 0 C187.68997544 -0.00669217 188.45856417 -0.01338433 189.25044346 -0.02027929 C194.34990718 0.03511158 197.95514971 0.92915665 202.46069336 3.38095093 C205.22053001 8.06747431 205.83807994 12.01933622 205.84887695 17.39852905 C205.85676239 18.39269081 205.85676239 18.39269081 205.86480713 19.40693665 C205.87790119 21.57560511 205.8693076 23.74352633 205.85913086 25.91220093 C205.86115466 27.43242533 205.86406864 28.95264878 205.86782837 30.47286987 C205.87223735 33.65016983 205.86586698 36.82721579 205.85180664 40.00448608 C205.83471536 44.06295239 205.84456425 48.12082338 205.86252403 52.17926788 C205.87340065 55.31583078 205.86989784 58.45225415 205.86214066 61.58882141 C205.86014935 63.08464123 205.86256009 64.58047401 205.86957932 66.07627869 C205.8772583 68.17231466 205.86550162 70.26740656 205.84887695 72.3633728 C205.84649017 73.55249268 205.84410339 74.74161255 205.84164429 75.96676636 C205.30106623 80.81157216 204.2846021 84.9104041 200.37793541 88.06019783 C196.56201823 89.78781739 193.10446623 89.7966411 188.99658203 89.76190186 C188.14645885 89.76658183 187.29633566 89.7712618 186.42045116 89.77608359 C183.57302926 89.78804559 180.72608756 89.77857163 177.87866211 89.76913452 C175.83679931 89.77319968 173.7949387 89.77854125 171.75308228 89.7850647 C166.20771016 89.79875063 160.66250535 89.79343432 155.11713028 89.78392744 C149.31652624 89.7763375 143.51593662 89.7833746 137.71533203 89.78808594 C127.97385077 89.79354542 118.23243771 89.78634679 108.4909668 89.77206421 C97.22502393 89.75573736 85.95924393 89.76102573 74.69330502 89.77754343 C65.0244021 89.79115277 55.35554823 89.79308064 45.68663883 89.78522742 C39.91015516 89.78054788 34.13374806 89.77993381 28.35726929 89.78983688 C22.92685692 89.79849619 17.49665475 89.79250345 12.06626511 89.77515411 C10.07201868 89.77118375 8.07775459 89.77233268 6.08351517 89.77894211 C3.36370532 89.78712589 0.64457134 89.77687431 -2.07519531 89.76190186 C-2.86653775 89.76859402 -3.65788019 89.77528619 -4.47320271 89.78218114 C-9.00311413 89.73372924 -11.95494816 89.2172459 -15.53930664 86.38095093 C-18.3866508 82.00181754 -18.91728902 78.55287936 -18.92749023 73.38510132 C-18.93274719 72.71271927 -18.93800415 72.04033722 -18.94342041 71.34757996 C-18.95654536 69.14101422 -18.94790868 66.93517932 -18.93774414 64.72860718 C-18.93976729 63.18453331 -18.94268073 61.64046038 -18.94644165 60.09638977 C-18.95085503 56.86603668 -18.94446687 53.63593312 -18.93041992 50.40560913 C-18.91334279 46.27873608 -18.9231658 42.15244907 -18.94113731 38.02559757 C-18.95201427 34.83842104 -18.94851072 31.6513818 -18.94075394 28.46420097 C-18.93876197 26.94326138 -18.9411757 25.42230906 -18.9481926 23.90138435 C-18.95587044 21.76932223 -18.9441157 19.63818861 -18.92749023 17.50619507 C-18.92510345 16.2962941 -18.92271667 15.08639313 -18.92025757 13.83982849 C-18.46694171 9.72390714 -17.64949449 6.95687332 -15.53930664 3.38095093 C-10.24776874 0.50216114 -5.95116428 -0.05181728 0 0 Z M2.46069336 21.38095093 C2.46069336 36.89095093 2.46069336 52.40095093 2.46069336 68.38095093 C62.52069336 68.38095093 122.58069336 68.38095093 184.46069336 68.38095093 C184.46069336 52.87095093 184.46069336 37.36095093 184.46069336 21.38095093 C124.40069336 21.38095093 64.34069336 21.38095093 2.46069336 21.38095093 Z " fill="#1a475e" transform="translate(103.539306640625,172.61904907226563)"></path>
  <path d="M0 0 C0.85995943 -0.00523668 1.71991886 -0.01047336 2.60593766 -0.01586872 C5.49858404 -0.03091643 8.39105428 -0.03157492 11.28373718 -0.03224182 C13.35323894 -0.03986013 15.42273785 -0.04828706 17.49223328 -0.0574646 C23.12244965 -0.07944961 28.75261169 -0.08821395 34.38286614 -0.09329104 C37.89879711 -0.09693006 41.41471375 -0.10316776 44.93063927 -0.11029243 C57.1920624 -0.13480138 69.45344315 -0.14784184 81.71488953 -0.15138245 C93.1512431 -0.15501826 104.58732837 -0.18491338 116.02359992 -0.22678703 C125.83599658 -0.26145769 135.64830421 -0.27693033 145.46076173 -0.27762848 C151.32402356 -0.27842243 157.1870123 -0.28721527 163.05021095 -0.31562614 C168.5652179 -0.34175115 174.07972427 -0.34404291 179.59476471 -0.3279705 C181.61924262 -0.32615155 183.64374894 -0.33288678 185.66816521 -0.34878922 C188.43187891 -0.3691758 191.19382905 -0.35874185 193.95751953 -0.34057617 C194.75898621 -0.35377614 195.5604529 -0.36697611 196.38620645 -0.38057607 C200.43922272 -0.31971419 202.94272754 0.09251199 206.15965939 2.66296101 C210.34661034 7.01945009 209.79655174 11.14964801 209.83036804 16.97288513 C209.83533295 17.62561401 209.84029785 18.2783429 209.84541321 18.95085144 C209.8599485 21.09769263 209.86682176 23.24445997 209.87236023 25.39134216 C209.8766013 26.4966799 209.8766013 26.4966799 209.88092804 27.62434769 C209.89588464 31.52275701 209.90513677 35.42112966 209.9094696 39.31956482 C209.91495381 43.33319133 209.93899061 47.34647854 209.96744156 51.3599987 C209.98612125 54.45878565 209.99127633 57.55749163 209.99280548 60.65633011 C209.99581973 62.13542158 210.00380656 63.61451204 210.01699066 65.09354782 C210.0341664 67.16816887 210.03214377 69.24197062 210.02568054 71.31663513 C210.03114899 73.08271622 210.03114899 73.08271622 210.03672791 74.88447571 C209.53361832 79.52505788 208.34286809 83.4984709 205.08706856 86.95279503 C201.56774025 88.87612792 198.16625263 88.69456053 194.25617981 88.66856384 C193.39944951 88.67465495 192.54271921 88.68074605 191.66002738 88.68702173 C188.78421911 88.70369408 185.90885155 88.69886988 183.03300476 88.69407654 C180.97320596 88.70141444 178.91341127 88.70999984 176.85362244 88.71974182 C171.25442517 88.74199664 165.65537489 88.74488649 160.05613947 88.74299431 C155.38407386 88.74287478 150.71203959 88.75143164 146.03998268 88.75977182 C135.0184298 88.77902044 123.99695266 88.7818845 112.97538757 88.77513123 C101.60091596 88.76849 90.22676859 88.79135492 78.85236275 88.82844496 C69.09089126 88.85912191 59.32952418 88.87050413 49.56800544 88.86660814 C43.73607047 88.86453847 37.90438772 88.87005366 32.07249832 88.89450073 C26.58782734 88.91673183 21.10368412 88.91492003 15.61901093 88.89457321 C13.605827 88.89115667 11.59260779 88.89627985 9.57947159 88.91055679 C6.83111571 88.92870308 4.08455896 88.91603493 1.33625793 88.89561462 C0.53936432 88.90813247 -0.25752929 88.92065032 -1.0785712 88.9335475 C-6.8076641 88.84227278 -9.3264232 87.38509334 -13.33076477 83.27415466 C-14.86179287 79.92960211 -14.47143815 76.14162748 -14.49189758 72.50535583 C-14.49686249 71.83326584 -14.50182739 71.16117584 -14.50694275 70.46871948 C-14.52151343 68.25151026 -14.52835803 66.03437259 -14.53388977 63.81712341 C-14.53964567 62.27019246 -14.54540335 60.72326151 -14.55116272 59.17633057 C-14.5616584 55.93411427 -14.56751035 52.69192266 -14.57099915 49.44969177 C-14.57647913 45.30712552 -14.6005024 41.16488872 -14.6289711 37.02242565 C-14.64764947 33.8267015 -14.65280585 30.63105587 -14.65433502 27.43528175 C-14.65735065 25.9087424 -14.66534218 24.38220407 -14.6785202 22.85571861 C-14.69568944 20.71394075 -14.69367454 18.57295696 -14.68721008 16.43113708 C-14.69085571 15.2152037 -14.69450134 13.99927032 -14.69825745 12.74649048 C-14.25720469 8.57910599 -13.27360929 5.98162085 -11.33076477 2.27415466 C-7.51195781 -0.27171664 -4.42611529 -0.01322691 0 0 Z M6.66923523 21.27415466 C6.66923523 36.45415466 6.66923523 51.63415466 6.66923523 67.27415466 C66.72923523 67.27415466 126.78923523 67.27415466 188.66923523 67.27415466 C188.66923523 52.09415466 188.66923523 36.91415466 188.66923523 21.27415466 C128.60923523 21.27415466 68.54923523 21.27415466 6.66923523 21.27415466 Z " fill="#1a475e" transform="translate(99.33076477050781,57.72584533691406)"></path>
  <path d="M0 0 C0.6973229 -0.00523668 1.3946458 -0.01047336 2.11309969 -0.01586872 C4.45530973 -0.03089921 6.79730189 -0.03157453 9.13955688 -0.03224182 C10.81659821 -0.03986125 12.49363603 -0.04828838 14.17066956 -0.0574646 C18.73060626 -0.07943749 23.2904759 -0.08821221 27.85045958 -0.09329104 C30.69835554 -0.09693124 33.54623384 -0.10316952 36.39412308 -0.11029243 C46.32669092 -0.13479635 56.25920646 -0.14784092 66.19180298 -0.15138245 C75.45489335 -0.15501876 84.71765259 -0.18491853 93.98064172 -0.22678703 C101.92977073 -0.2614592 109.87878985 -0.27693035 117.82799399 -0.27762848 C122.57733556 -0.27842233 127.32633994 -0.28721032 132.07560349 -0.31562614 C136.54251309 -0.34175436 141.00880471 -0.34404161 145.47575569 -0.3279705 C147.11525505 -0.32615183 148.75478951 -0.33288451 150.39421272 -0.34878922 C152.632928 -0.36918388 154.86946752 -0.35874044 157.1081543 -0.34057617 C158.36066168 -0.3425875 159.61316906 -0.34459883 160.90363121 -0.3466711 C165.08561878 0.44550019 166.55121786 1.99836949 169.18106079 5.27415466 C170.5647815 9.25235171 170.27372107 10.99617384 168.93106079 15.02415466 C167.18106079 18.27415466 167.18106079 18.27415466 164.18106079 20.27415466 C161.15531349 20.53421688 161.15531349 20.53421688 157.36212158 20.54830933 C156.66479868 20.553546 155.96747578 20.55878268 155.24902189 20.56417805 C152.90681186 20.57920853 150.56481969 20.57988386 148.2225647 20.58055115 C146.54552337 20.58817058 144.86848555 20.5965977 143.19145203 20.60577393 C138.63151532 20.62774682 134.07164568 20.63652153 129.51166201 20.64160037 C126.66376605 20.64524056 123.81588775 20.65147884 120.9679985 20.65860176 C111.03543066 20.68310567 101.10291512 20.69615025 91.1703186 20.69969177 C81.90722823 20.70332809 72.64446899 20.73322785 63.38147986 20.77509636 C55.43235085 20.80976852 47.48333173 20.82523968 39.53412759 20.82593781 C34.78478603 20.82673166 30.03578164 20.83551965 25.2865181 20.86393547 C20.81960849 20.89006368 16.35331687 20.89235094 11.88636589 20.87627983 C10.24686654 20.87446115 8.60733208 20.88119384 6.96790886 20.89709854 C4.72919358 20.9174932 2.49265406 20.90704976 0.25396729 20.8888855 C-0.9985401 20.89089683 -2.25104748 20.89290815 -3.54150963 20.89498043 C-7.7234972 20.10280913 -9.18909628 18.54993984 -11.81893921 15.27415466 C-13.20265992 11.29595762 -12.91159948 9.55213549 -11.56893921 5.52415466 C-8.60362333 0.01713946 -5.86200858 0.0217785 0 0 Z " fill="#1a475e" transform="translate(97.81893920898438,289.72584533691406)"></path>
  <path d="M0 0 C3.51152485 2.80921988 4.04921307 4.68321511 4.625 9.125 C4.05235997 13.86973172 2.76941991 15.61582008 -0.8125 18.75 C-4.77675016 20.18064673 -7.74550423 20.20050933 -11.625 18.5625 C-15.22410223 15.58038672 -16.66664577 14.08699707 -17.1875 9.3125 C-16.78882857 5.52512139 -16.1747451 3.70280637 -13.8125 0.75 C-9.65194818 -2.37041386 -4.59375224 -2.04166766 0 0 Z " fill="#1a475e" transform="translate(430.8125,283.25)"></path>
  <path d="M0 0 C2.8367179 1.70705148 3.34742379 2.91519108 5 6 C5.91506578 10.22908777 5.4917442 13.22960075 3.125 16.9375 C-0.35759745 20.31766811 -3.03637499 20.40798732 -7.73828125 20.33984375 C-10 20 -10 20 -13 17.9375 C-15.40813237 14.40055558 -16 12.27436594 -16 8 C-12.98830917 0.0190193 -7.99871021 -1.42652157 0 0 Z " fill="#1a475e" transform="translate(101,341)"></path>
  <path d="M0 0 C3.41421647 2.36904816 4.64346607 3.97496494 6 7.875 C6 11.90306262 4.89929459 14.47273862 3 18 C-1.25929566 20.83953044 -5.00382943 20.73987876 -10 20 C-13.125 18.125 -13.125 18.125 -15 15 C-15.98876625 9.97377154 -15.7769173 6.29486216 -13.125 1.875 C-8.72313726 -0.76611764 -5.00852491 -1.01979818 0 0 Z " fill="#1a475e" transform="translate(303,290)"></path>
</svg>
